<svg xmlns="http://www.w3.org/2000/svg" viewBox="0 0 800 600" role="img" aria-label="Cocktail placeholder">
  <defs>
    <linearGradient id="bg" x1="0" x2="1" y1="0" y2="1">
      <stop offset="0%" stop-color="#1a211d"/>
      <stop offset="100%" stop-color="#111613"/>
    </linearGradient>
    <linearGradient id="accent" x1="0" x2="1" y1="0" y2="1">
      <stop offset="0%" stop-color="#c8f36b"/>
      <stop offset="100%" stop-color="#f0c66a"/>
    </linearGradient>
  </defs>
  <rect width="800" height="600" fill="url(#bg)"/>
  <circle cx="632" cy="132" r="84" fill="#f0c66a" fill-opacity=".18"/>
  <circle cx="172" cy="454" r="112" fill="#c8f36b" fill-opacity=".09"/>
  <path d="M222 140h144v28H222z" fill="#c8f36b" fill-opacity=".15"/>
  <path d="M214 186h118v18H214z" fill="#f0c66a" fill-opacity=".12"/>
  <path d="M500 170c45 0 82 36 82 82s-37 82-82 82h-96l34 110h-78l34-110h-18c-45 0-82-36-82-82s37-82 82-82h124z" fill="none" stroke="#eef5ea" stroke-opacity=".32" stroke-width="14" stroke-linejoin="round"/>
  <path d="M558 194c30 15 50 46 50 83 0 42-28 77-66 88" fill="none" stroke="url(#accent)" stroke-width="18" stroke-linecap="round"/>
  <path d="M332 392c24-12 54-17 86-17 55 0 103 18 131 47" fill="none" stroke="#c8f36b" stroke-opacity=".22" stroke-width="18" stroke-linecap="round"/>
  <path d="M182 380h130l-22 72h-86z" fill="#f0c66a" fill-opacity=".12" stroke="#eef5ea" stroke-opacity=".12" stroke-width="8"/>
</svg>
